<svg xmlns="http://www.w3.org/2000/svg" aria-hidden="true" style="position:absolute;width:0;height:0;overflow:hidden">
    <defs>
        <symbol id="icon-home1" viewBox="0 0 32 32">
            <path d="M3.556 0A3.556 3.556 0 0 0 0 3.556v24.889a3.556 3.556 0 0 0 3.556 3.556h24.889a3.556 3.556 0 0 0 3.556-3.556V3.556A3.556 3.556 0 0 0 28.445 0H3.556zm10.311 17.987v6.902H8.534v-9.203h-3.2L16.001 5.333l10.667 10.353h-3.2v9.203h-5.333v-6.902h-4.267z"/>
        </symbol>
        <symbol id="icon-currency" viewBox="0 0 19 32">
            <path d="M10.414 14.294c-3.93-1.021-5.193-2.077-5.193-3.722 0-1.887 1.748-3.203 4.674-3.203 3.081 0 4.224 1.472 4.328 3.635h3.826c-.121-2.978-1.939-5.713-5.557-6.596V.617H7.299v3.739c-3.358.727-6.059 2.908-6.059 6.249 0 3.999 3.307 5.99 8.136 7.15 4.328 1.039 5.193 2.562 5.193 4.172 0 1.194-.848 3.099-4.674 3.099-3.566 0-4.968-1.593-5.159-3.635H.927c.208 3.791 3.047 5.921 6.371 6.63v3.757h5.193v-3.722c3.376-.641 6.059-2.597 6.059-6.146 0-4.917-4.207-6.596-8.136-7.617z"/>
        </symbol>
        <symbol id="icon-statistics" viewBox="0 0 32 32">
            <path d="M28.444 0A3.556 3.556 0 0 1 32 3.556v24.889a3.556 3.556 0 0 1-3.556 3.556H3.555a3.556 3.556 0 0 1-3.556-3.556V3.556A3.556 3.556 0 0 1 3.555 0h24.889zm-2.262 8.889c-1.244 0-2.263 1.066-2.264 2.37 0 .213.023.415.08.604l-4.016 4.221c-.181-.059-.385-.083-.588-.083s-.408.024-.589.083l-2.885-3.023c.057-.19.08-.403.08-.616 0-1.304-1.018-2.37-2.262-2.37s-2.264 1.066-2.264 2.37c0 .213.023.427.08.616l-5.158 5.392a1.858 1.858 0 0 0-.578-.083c-1.244 0-2.262 1.068-2.262 2.372s1.018 2.369 2.262 2.37c1.244 0 2.264-1.066 2.264-2.37a2.12 2.12 0 0 0-.08-.604l5.148-5.404c.181.059.385.082.589.082s.408-.022.589-.082l2.884 3.021a2.204 2.204 0 0 0-.078.616c0 1.304 1.018 2.372 2.262 2.372s2.262-1.068 2.262-2.372c0-.213-.021-.427-.078-.616l4.026-4.207c.181.059.375.083.578.083 1.244 0 2.262-1.068 2.262-2.372s-1.018-2.37-2.262-2.37z"/>
        </symbol>
    </defs>
</svg>