
<svg xmlns="http://www.w3.org/2000/svg" aria-hidden="true" style="position:absolute;width:0;height:0;overflow:hidden">
  <defs>
    <symbol id="icon-Exit" viewBox="0 0 32 32">
      <path
        d="M20.051 23.237h2.499v4.997a3.752 3.752 0 0 1-3.748 3.748H3.748A3.752 3.752 0 0 1 0 28.234V3.748A3.752 3.752 0 0 1 3.748 0h15.054a3.752 3.752 0 0 1 3.748 3.748v4.997h-2.499V3.748a1.25 1.25 0 0 0-1.249-1.249H3.748a1.25 1.25 0 0 0-1.249 1.249v24.486a1.25 1.25 0 0 0 1.249 1.249h15.054a1.25 1.25 0 0 0 1.249-1.249v-4.997zm6.06-13.135-1.767 1.767 2.873 2.874H11.056v2.499h16.161l-2.873 2.873 1.767 1.767L32 15.993l-5.889-5.89z" />
    </symbol>
    <symbol id="icon-logo" viewBox="0 0 62 32">
      <path fill="#508f8c"
        d="M35.574 7.66h-9.191c-.643 0-1.187.398-1.417.957l8.51 2.083c.237.061.49 0 .674-.153l2.673-2.237a1.543 1.543 0 0 0-1.248-.651zm0-3.064h-9.191c-.843 0-1.532.689-1.532 1.532v.421c.452-.26.973-.421 1.532-.421h9.191c.559 0 1.08.161 1.532.421v-.421c0-.843-.689-1.532-1.532-1.532z"
        style="fill:var(--color1, #508f8c)" />
      <path fill="#081222"
        d="M35.574 3.064h-9.191a3.063 3.063 0 0 0-3.064 3.064v6.128a3.063 3.063 0 0 0 3.064 3.064h9.191a3.063 3.063 0 0 0 3.064-3.064V6.128a3.063 3.063 0 0 0-3.064-3.064zm-1.424 7.483a.764.764 0 0 1-.674.153l-8.51-2.083c.23-.559.774-.957 1.417-.957h9.192c.513 0 .965.26 1.248.643l-2.673 2.244zm2.956-3.998a3.067 3.067 0 0 0-1.532-.421h-9.191c-.559 0-1.08.161-1.532.421v-.421c0-.843.689-1.532 1.532-1.532h9.191c.843 0 1.532.689 1.532 1.532v.421zM14.319 29.008c-.524 0-.994-.085-1.409-.255s-.749-.422-1.001-.756c-.245-.334-.374-.735-.388-1.205h1.859c.027.266.119.47.276.613.157.136.361.204.613.204.259 0 .463-.058.613-.174a.612.612 0 0 0 .225-.5.577.577 0 0 0-.184-.439 1.363 1.363 0 0 0-.439-.286 6.535 6.535 0 0 0-.735-.255c-.463-.143-.841-.286-1.134-.429s-.545-.354-.756-.633c-.211-.279-.317-.643-.317-1.093 0-.667.242-1.188.725-1.563.483-.381 1.113-.572 1.889-.572.79 0 1.426.191 1.91.572.483.374.742.899.776 1.573h-1.889a.723.723 0 0 0-.255-.541.886.886 0 0 0-.603-.204.738.738 0 0 0-.511.174c-.129.109-.194.269-.194.48 0 .232.109.412.327.541s.558.269 1.021.419c.463.157.837.306 1.123.449.293.143.545.351.756.623s.317.623.317 1.052c0 .409-.106.78-.317 1.113-.204.334-.504.599-.899.797s-.861.296-1.399.296zm5.436-4.964c.17-.266.405-.48.705-.643s.65-.245 1.052-.245c.47 0 .895.119 1.277.357s.681.579.899 1.021c.225.443.337.957.337 1.542s-.112 1.103-.337 1.552a2.514 2.514 0 0 1-.899 1.032 2.362 2.362 0 0 1-1.277.357c-.395 0-.746-.082-1.052-.245a1.927 1.927 0 0 1-.705-.633v3.513h-1.746v-8.415h1.746v.807zm2.492 2.033c0-.436-.123-.776-.368-1.021a1.172 1.172 0 0 0-.889-.378c-.347 0-.643.126-.889.378-.238.252-.357.596-.357 1.032s.119.78.357 1.032c.245.252.541.378.889.378s.643-.126.889-.378c.245-.259.368-.606.368-1.042zm8.065-.082c0 .163-.01.334-.031.511h-3.952c.027.354.14.626.337.817.204.184.453.276.746.276.436 0 .739-.184.909-.552h1.859a2.512 2.512 0 0 1-.521 1.011c-.245.3-.555.534-.929.705s-.793.255-1.256.255c-.558 0-1.055-.119-1.491-.357s-.776-.579-1.021-1.021c-.245-.443-.368-.96-.368-1.552s.119-1.11.357-1.552c.245-.443.586-.783 1.021-1.021s.936-.357 1.501-.357c.552 0 1.042.116 1.471.347s.763.562 1.001.991c.245.429.368.929.368 1.501zm-1.788-.46c0-.3-.102-.538-.306-.715s-.46-.266-.766-.266a1.13 1.13 0 0 0-.746.255c-.197.17-.32.412-.368.725h2.186zm6.181-2.359c.667 0 1.198.218 1.593.654.402.429.603 1.021.603 1.777v3.329h-1.736v-3.094c0-.381-.099-.677-.296-.889s-.463-.317-.797-.317-.599.106-.797.317-.296.507-.296.889v3.094h-1.746v-5.699h1.746v.756c.177-.252.415-.449.715-.592.3-.15.637-.225 1.011-.225zm3.062 2.901c0-.586.109-1.1.327-1.542.225-.443.528-.783.909-1.021s.807-.357 1.277-.357c.374 0 .715.078 1.021.235.313.157.558.368.735.633V21.38h1.746v7.557h-1.746v-.817c-.163.272-.398.49-.705.654-.3.163-.65.245-1.052.245-.47 0-.895-.119-1.277-.357a2.588 2.588 0 0 1-.909-1.032c-.218-.449-.327-.967-.327-1.552zm4.269.01c0-.436-.123-.78-.368-1.032-.238-.252-.531-.378-.878-.378s-.643.126-.889.378c-.238.245-.357.586-.357 1.021s.119.783.357 1.042c.245.252.541.378.889.378s.64-.126.878-.378c.245-.252.368-.596.368-1.032zm8.831-2.85-3.574 8.405h-1.879l1.307-2.9-2.318-5.505h1.951l1.317 3.564 1.307-3.564h1.889z"
        style="fill:var(--color2, #081222)" />
    </symbol>
    <symbol id="icon-wallet" viewBox="0 0 33 32">
      <path fill="#508f8c" style="fill: var(--color2, #508f8c)"
        d="M24.489 13.288h-15.946c-1.116 0-2.060 0.691-2.458 1.661l14.763 3.614c0.412 0.106 0.85 0 1.169-0.266l4.638-3.88c-0.492-0.678-1.276-1.13-2.166-1.13zM24.489 7.973h-15.946c-1.462 0-2.658 1.196-2.658 2.658v0.731c0.784-0.452 1.688-0.731 2.658-0.731h15.946c0.97 0 1.874 0.279 2.658 0.731v-0.731c0-1.462-1.196-2.658-2.658-2.658z">
      </path>
      <path fill="#081222" style="fill: var(--color3, #081222)"
        d="M24.489 5.315h-15.946c-2.937 0-5.315 2.379-5.315 5.315v10.631c0 2.937 2.379 5.315 5.315 5.315h15.946c2.937 0 5.315-2.379 5.315-5.315v-10.631c0-2.937-2.379-5.315-5.315-5.315zM22.018 18.298c-0.319 0.266-0.757 0.372-1.169 0.266l-14.763-3.614c0.399-0.97 1.342-1.661 2.458-1.661h15.946c0.89 0 1.674 0.452 2.166 1.116l-4.638 3.893zM27.147 11.361c-0.784-0.452-1.688-0.731-2.658-0.731h-15.946c-0.97 0-1.874 0.279-2.658 0.731v-0.731c0-1.462 1.196-2.658 2.658-2.658h15.946c1.462 0 2.658 1.196 2.658 2.658v0.731z">
      </path>
    </symbol>
    <symbol id="icon-house" viewBox="0 0 33 32">
      <path d="m16.658-.018 16.786 16.53h-4.357v15.505h-9.098V20.741h-6.535v11.276H4.356V16.512H-.001z" />
    </symbol>
    <symbol id="icon-Statistics" viewBox="0 0 32 32">
      <path
        d="M28.444 0A3.556 3.556 0 0 1 32 3.556v24.889a3.556 3.556 0 0 1-3.556 3.556H3.555a3.556 3.556 0 0 1-3.556-3.556V3.556A3.556 3.556 0 0 1 3.555 0h24.889zm-2.262 8.889c-1.244 0-2.263 1.066-2.264 2.37 0 .213.023.415.08.604l-4.016 4.221c-.181-.059-.385-.083-.588-.083s-.408.024-.589.083l-2.885-3.023c.057-.19.08-.403.08-.616 0-1.304-1.018-2.37-2.262-2.37s-2.264 1.066-2.264 2.37c0 .213.023.427.08.616l-5.158 5.392a1.858 1.858 0 0 0-.578-.083c-1.244 0-2.262 1.068-2.262 2.372s1.018 2.369 2.262 2.37c1.244 0 2.264-1.066 2.264-2.37a2.12 2.12 0 0 0-.08-.604l5.148-5.404c.181.059.385.082.589.082s.408-.022.589-.082l2.884 3.021a2.204 2.204 0 0 0-.078.616c0 1.304 1.018 2.372 2.262 2.372s2.262-1.068 2.262-2.372c0-.213-.021-.427-.078-.616l4.026-4.207c.181.059.375.083.578.083 1.244 0 2.262-1.068 2.262-2.372s-1.018-2.37-2.262-2.37z" />
    </symbol>
    <symbol id="icon-Edit" viewBox="0 0 32 32">
      <path stroke-linecap="round" stroke-linejoin="round" stroke-width="2.743"
        d="m24 13.334-5.333-5.333M3.334 28.667l4.512-.502c.551-.061.827-.092 1.085-.175.229-.074.446-.178.647-.311.226-.149.422-.345.814-.737L28 9.334a3.77 3.77 0 1 0-5.333-5.333L5.059 21.609c-.392.392-.588.588-.737.814a2.68 2.68 0 0 0-.311.647c-.083.258-.114.533-.175 1.085l-.501 4.513z" />
    </symbol>
    <symbol id="icon-plus" viewBox="0 0 32 32">
      <path stroke-width="3.2" d="M16 0v32M0 16h32" />
    </symbol>
    <symbol id="icon-date-range" viewBox="0 0 32 32">
      <path
        d="M12 14.667H9.333v2.667H12v-2.667zm5.333 0h-2.667v2.667h2.667v-2.667zm5.334 0H20v2.667h2.667v-2.667zm2.666-9.334H24V2.666h-2.667v2.667H10.666V2.666H7.999v2.667H6.666c-1.48 0-2.653 1.2-2.653 2.667L4 26.667a2.666 2.666 0 0 0 2.667 2.667h18.667c1.467 0 2.667-1.2 2.667-2.667V8c0-1.467-1.2-2.667-2.667-2.667zm0 21.334H6.666V12h18.667v14.667z" />
    </symbol>
    <symbol id="icon-Arrow-down" viewBox="0 0 32 32">
      <path stroke-width="1.333" d="m24.47 10.196-8.471 8.471-8.471-8.471" />
    </symbol>
    <symbol id="icon-Arrow-up" viewBox="0 0 32 32">
      <path stroke-width="1.333" d="M7.529 18.667 16 10.196l8.471 8.471" />
    </symbol>
    <symbol id="icon-email" viewBox="0 0 32 32">
      <path
        d="M26.667 5.333H5.334A2.663 2.663 0 0 0 2.681 8l-.013 16c0 1.467 1.2 2.667 2.667 2.667h21.333c1.467 0 2.667-1.2 2.667-2.667V8c0-1.467-1.2-2.667-2.667-2.667zm0 5.334L16 17.334 5.333 10.667V8L16 14.667 26.667 8v2.667z" />
    </symbol>
    <symbol id="icon-lock" viewBox="0 0 32 32">
      <path
        d="M24 10.667h-1.333V8c0-3.68-2.987-6.667-6.667-6.667S9.333 4.32 9.333 8v2.667H8a2.675 2.675 0 0 0-2.667 2.667v13.333c0 1.467 1.2 2.667 2.667 2.667h16c1.467 0 2.667-1.2 2.667-2.667V13.334c0-1.467-1.2-2.667-2.667-2.667zm-8 12c-1.467 0-2.667-1.2-2.667-2.667s1.2-2.667 2.667-2.667c1.467 0 2.667 1.2 2.667 2.667s-1.2 2.667-2.667 2.667zm4.133-12h-8.267V8c0-2.28 1.853-4.133 4.133-4.133S20.132 5.72 20.132 8v2.667z" />
    </symbol>
    <symbol id="icon-user" viewBox="0 0 32 32">
      <path
        d="M16 20c-4.227 0-7.986 2.041-10.379 5.208-.515.682-.773 1.022-.764 1.483.006.356.23.805.51 1.025.362.284.865.284 1.869.284h17.527c1.005 0 1.507 0 1.869-.284.28-.22.503-.669.51-1.025.008-.461-.249-.801-.764-1.483C23.985 22.041 20.226 20 15.999 20zM16 16a6 6 0 1 0 0-12 6 6 0 0 0 0 12z" />
    </symbol>
  </defs>
</svg>