<svg aria-hidden="true" style="position: absolute; width: 0; height: 0; overflow: hidden;" version="1.1"
    xmlns="http://www.w3.org/2000/svg" xmlns:xlink="http://www.w3.org/1999/xlink">
    <defs>
        <symbol id="icon-exit" viewBox="0 0 32 32">
            <path fill="#fcfcfc" style="fill: var(--color1, #fcfcfc)"
                d="M20.051 23.237h2.499v4.997c0 2.067-1.681 3.748-3.748 3.748h-15.054c-2.066 0-3.748-1.681-3.748-3.748v-24.486c0-2.066 1.681-3.748 3.748-3.748h15.054c2.067 0 3.748 1.681 3.748 3.748v4.997h-2.499v-4.997c0-0.689-0.56-1.249-1.249-1.249h-15.054c-0.689 0-1.249 0.561-1.249 1.249v24.486c0 0.689 0.561 1.249 1.249 1.249h15.054c0.689 0 1.249-0.561 1.249-1.249v-4.997zM26.111 10.102l-1.767 1.767 2.873 2.874h-16.161v2.499h16.161l-2.873 2.873 1.767 1.767 5.889-5.889-5.889-5.89z">
            </path>
        </symbol>
        <symbol id="icon-wallet" viewBox="0 0 33 32">
            <path fill="#508f8c" style="fill: var(--color2, #508f8c)"
                d="M24.489 13.288h-15.946c-1.116 0-2.060 0.691-2.458 1.661l14.763 3.614c0.412 0.106 0.85 0 1.169-0.266l4.638-3.88c-0.492-0.678-1.276-1.13-2.166-1.13zM24.489 7.973h-15.946c-1.462 0-2.658 1.196-2.658 2.658v0.731c0.784-0.452 1.688-0.731 2.658-0.731h15.946c0.97 0 1.874 0.279 2.658 0.731v-0.731c0-1.462-1.196-2.658-2.658-2.658z">
            </path>
            <path fill="#081222" style="fill: var(--color3, #081222)"
                d="M24.489 5.315h-15.946c-2.937 0-5.315 2.379-5.315 5.315v10.631c0 2.937 2.379 5.315 5.315 5.315h15.946c2.937 0 5.315-2.379 5.315-5.315v-10.631c0-2.937-2.379-5.315-5.315-5.315zM22.018 18.298c-0.319 0.266-0.757 0.372-1.169 0.266l-14.763-3.614c0.399-0.97 1.342-1.661 2.458-1.661h15.946c0.89 0 1.674 0.452 2.166 1.116l-4.638 3.893zM27.147 11.361c-0.784-0.452-1.688-0.731-2.658-0.731h-15.946c-0.97 0-1.874 0.279-2.658 0.731v-0.731c0-1.462 1.196-2.658 2.658-2.658h15.946c1.462 0 2.658 1.196 2.658 2.658v0.731z">
            </path>
        </symbol>
    </defs>
</svg>