<svg width="18" height="18" viewBox="0 0 18 18" fill="none" xmlns="http://www.w3.org/2000/svg">
<path opacity="0.7" d="M16 0C17.1046 0 18 0.895431 18 2V16C18 17.1046 17.1046 18 16 18H2C0.895431 18 8.05332e-09 17.1046 0 16V2C0 0.895431 0.895431 8.05319e-09 2 0H16ZM14.7275 5C14.0276 5 13.4543 5.59982 13.4541 6.33301C13.4541 6.45284 13.4673 6.56632 13.499 6.67285L11.2402 9.04688C11.1384 9.01355 11.0237 9.00001 10.9092 9C10.7946 9 10.6799 9.01354 10.5781 9.04688L8.95508 7.34668C8.9869 7.24001 9 7.12 9 7C9 6.26676 8.42742 5.66714 7.72754 5.66699C7.02754 5.66699 6.4541 6.26667 6.4541 7C6.4541 7.12 6.46721 7.24001 6.49902 7.34668L3.59766 10.3799C3.49584 10.3465 3.38701 10.333 3.27246 10.333C2.57258 10.3332 2 10.9338 2 11.667C2.00017 12.4001 2.57269 12.9998 3.27246 13C3.97236 13 4.54573 12.4002 4.5459 11.667C4.5459 11.5472 4.53269 11.4337 4.50098 11.3271L7.39648 8.28711C7.49824 8.32038 7.61308 8.33301 7.72754 8.33301C7.842 8.33299 7.95685 8.32042 8.05859 8.28711L9.68066 9.98633C9.64887 10.0929 9.63674 10.2131 9.63672 10.333C9.63672 11.0663 10.2092 11.667 10.9092 11.667C11.6091 11.6669 12.1816 11.0663 12.1816 10.333C12.1816 10.2131 12.1695 10.0929 12.1377 9.98633L14.4023 7.62012C14.5042 7.65345 14.613 7.66699 14.7275 7.66699C15.4274 7.66684 16 7.06625 16 6.33301C15.9998 5.59992 15.4273 5.00015 14.7275 5Z" fill="#FCFCFC"/>
</svg>
